<mxfile host="app.diagrams.net" modified="2024-06-20T18:48:17.159Z" agent="Mozilla/5.0 (Windows NT 10.0; Win64; x64) AppleWebKit/537.36 (KHTML, like Gecko) Chrome/126.0.0.0 Safari/537.36" etag="qabn8F-zGefqVKMA6lRi" version="24.5.5" type="device">
  <diagram name="Страница — 1" id="Hi1kmv4AZJP24rw0wSyT">
    <mxGraphModel dx="1758" dy="879" grid="1" gridSize="10" guides="1" tooltips="1" connect="1" arrows="1" fold="1" page="1" pageScale="1" pageWidth="827" pageHeight="1169" math="0" shadow="0">
      <root>
        <mxCell id="0" />
        <mxCell id="1" parent="0" />
        <mxCell id="_998W6DAtnBrzuv0yap4-4" value="Flask app" style="text;strokeColor=none;fillColor=none;align=left;verticalAlign=middle;spacingLeft=4;spacingRight=4;overflow=hidden;points=[[0,0.5],[1,0.5]];portConstraint=eastwest;rotatable=0;whiteSpace=wrap;html=1;" vertex="1" parent="1">
          <mxGeometry x="100" y="40" width="80" height="30" as="geometry" />
        </mxCell>
        <mxCell id="_998W6DAtnBrzuv0yap4-6" value="" style="endArrow=classic;html=1;rounded=0;entryX=0;entryY=0.5;entryDx=0;entryDy=0;" edge="1" parent="1" target="_998W6DAtnBrzuv0yap4-7">
          <mxGeometry width="50" height="50" relative="1" as="geometry">
            <mxPoint x="138" y="70" as="sourcePoint" />
            <mxPoint x="190" y="100" as="targetPoint" />
            <Array as="points">
              <mxPoint x="138" y="100" />
            </Array>
          </mxGeometry>
        </mxCell>
        <mxCell id="_998W6DAtnBrzuv0yap4-7" value="SQLAlchemy (db)" style="text;strokeColor=none;fillColor=none;align=left;verticalAlign=middle;spacingLeft=4;spacingRight=4;overflow=hidden;points=[[0,0.5],[1,0.5]];portConstraint=eastwest;rotatable=0;whiteSpace=wrap;html=1;" vertex="1" parent="1">
          <mxGeometry x="200" y="80" width="120" height="40" as="geometry" />
        </mxCell>
        <mxCell id="_998W6DAtnBrzuv0yap4-8" value="User (db.Model)" style="text;strokeColor=none;fillColor=none;align=left;verticalAlign=middle;spacingLeft=4;spacingRight=4;overflow=hidden;points=[[0,0.5],[1,0.5]];portConstraint=eastwest;rotatable=0;whiteSpace=wrap;html=1;" vertex="1" parent="1">
          <mxGeometry x="200" y="120" width="120" height="40" as="geometry" />
        </mxCell>
        <mxCell id="_998W6DAtnBrzuv0yap4-9" value="" style="endArrow=classic;html=1;rounded=0;entryX=0;entryY=0.5;entryDx=0;entryDy=0;" edge="1" parent="1" target="_998W6DAtnBrzuv0yap4-8">
          <mxGeometry width="50" height="50" relative="1" as="geometry">
            <mxPoint x="138" y="70" as="sourcePoint" />
            <mxPoint x="440" y="280" as="targetPoint" />
            <Array as="points">
              <mxPoint x="138" y="140" />
            </Array>
          </mxGeometry>
        </mxCell>
        <mxCell id="_998W6DAtnBrzuv0yap4-10" value="id (db.Column)" style="text;strokeColor=none;fillColor=none;align=left;verticalAlign=middle;spacingLeft=4;spacingRight=4;overflow=hidden;points=[[0,0.5],[1,0.5]];portConstraint=eastwest;rotatable=0;whiteSpace=wrap;html=1;" vertex="1" parent="1">
          <mxGeometry x="320" y="160" width="90" height="30" as="geometry" />
        </mxCell>
        <mxCell id="_998W6DAtnBrzuv0yap4-11" value="" style="endArrow=classic;html=1;rounded=0;exitX=0.5;exitY=1;exitDx=0;exitDy=0;exitPerimeter=0;entryX=0;entryY=0.5;entryDx=0;entryDy=0;" edge="1" parent="1" source="_998W6DAtnBrzuv0yap4-8" target="_998W6DAtnBrzuv0yap4-10">
          <mxGeometry width="50" height="50" relative="1" as="geometry">
            <mxPoint x="230" y="250" as="sourcePoint" />
            <mxPoint x="280" y="200" as="targetPoint" />
            <Array as="points">
              <mxPoint x="260" y="175" />
            </Array>
          </mxGeometry>
        </mxCell>
        <mxCell id="_998W6DAtnBrzuv0yap4-12" value="username (db.Column)" style="text;strokeColor=none;fillColor=none;align=left;verticalAlign=middle;spacingLeft=4;spacingRight=4;overflow=hidden;points=[[0,0.5],[1,0.5]];portConstraint=eastwest;rotatable=0;whiteSpace=wrap;html=1;" vertex="1" parent="1">
          <mxGeometry x="320" y="190" width="140" height="30" as="geometry" />
        </mxCell>
        <mxCell id="_998W6DAtnBrzuv0yap4-13" value="" style="endArrow=classic;html=1;rounded=0;exitX=0.5;exitY=1;exitDx=0;exitDy=0;exitPerimeter=0;entryX=0;entryY=0.5;entryDx=0;entryDy=0;" edge="1" parent="1" target="_998W6DAtnBrzuv0yap4-12">
          <mxGeometry width="50" height="50" relative="1" as="geometry">
            <mxPoint x="260" y="160" as="sourcePoint" />
            <mxPoint x="320" y="175" as="targetPoint" />
            <Array as="points">
              <mxPoint x="260" y="205" />
            </Array>
          </mxGeometry>
        </mxCell>
        <mxCell id="_998W6DAtnBrzuv0yap4-14" value="email (db.Column" style="text;strokeColor=none;fillColor=none;align=left;verticalAlign=middle;spacingLeft=4;spacingRight=4;overflow=hidden;points=[[0,0.5],[1,0.5]];portConstraint=eastwest;rotatable=0;whiteSpace=wrap;html=1;" vertex="1" parent="1">
          <mxGeometry x="320" y="220" width="110" height="30" as="geometry" />
        </mxCell>
        <mxCell id="_998W6DAtnBrzuv0yap4-15" value="" style="endArrow=classic;html=1;rounded=0;exitX=0.5;exitY=1;exitDx=0;exitDy=0;exitPerimeter=0;entryX=0;entryY=0.5;entryDx=0;entryDy=0;" edge="1" parent="1" target="_998W6DAtnBrzuv0yap4-14">
          <mxGeometry width="50" height="50" relative="1" as="geometry">
            <mxPoint x="260" y="160" as="sourcePoint" />
            <mxPoint x="320" y="205" as="targetPoint" />
            <Array as="points">
              <mxPoint x="260" y="235" />
            </Array>
          </mxGeometry>
        </mxCell>
        <mxCell id="_998W6DAtnBrzuv0yap4-16" value="password (db.Column)" style="text;strokeColor=none;fillColor=none;align=left;verticalAlign=middle;spacingLeft=4;spacingRight=4;overflow=hidden;points=[[0,0.5],[1,0.5]];portConstraint=eastwest;rotatable=0;whiteSpace=wrap;html=1;" vertex="1" parent="1">
          <mxGeometry x="320" y="250" width="135" height="30" as="geometry" />
        </mxCell>
        <mxCell id="_998W6DAtnBrzuv0yap4-17" value="" style="endArrow=classic;html=1;rounded=0;exitX=0.5;exitY=1;exitDx=0;exitDy=0;exitPerimeter=0;entryX=0;entryY=0.5;entryDx=0;entryDy=0;" edge="1" parent="1" target="_998W6DAtnBrzuv0yap4-16">
          <mxGeometry width="50" height="50" relative="1" as="geometry">
            <mxPoint x="260" y="160" as="sourcePoint" />
            <mxPoint x="320" y="235" as="targetPoint" />
            <Array as="points">
              <mxPoint x="260" y="265" />
            </Array>
          </mxGeometry>
        </mxCell>
        <mxCell id="_998W6DAtnBrzuv0yap4-18" value="balance (db.Column)" style="text;strokeColor=none;fillColor=none;align=left;verticalAlign=middle;spacingLeft=4;spacingRight=4;overflow=hidden;points=[[0,0.5],[1,0.5]];portConstraint=eastwest;rotatable=0;whiteSpace=wrap;html=1;" vertex="1" parent="1">
          <mxGeometry x="320" y="280" width="130" height="30" as="geometry" />
        </mxCell>
        <mxCell id="_998W6DAtnBrzuv0yap4-19" value="" style="endArrow=classic;html=1;rounded=0;exitX=0.5;exitY=1;exitDx=0;exitDy=0;exitPerimeter=0;entryX=0;entryY=0.5;entryDx=0;entryDy=0;" edge="1" parent="1" target="_998W6DAtnBrzuv0yap4-18">
          <mxGeometry width="50" height="50" relative="1" as="geometry">
            <mxPoint x="260" y="160" as="sourcePoint" />
            <mxPoint x="320" y="265" as="targetPoint" />
            <Array as="points">
              <mxPoint x="260" y="295" />
            </Array>
          </mxGeometry>
        </mxCell>
        <mxCell id="_998W6DAtnBrzuv0yap4-20" value="transactions (db.relationship)" style="text;strokeColor=none;fillColor=none;align=left;verticalAlign=middle;spacingLeft=4;spacingRight=4;overflow=hidden;points=[[0,0.5],[1,0.5]];portConstraint=eastwest;rotatable=0;whiteSpace=wrap;html=1;" vertex="1" parent="1">
          <mxGeometry x="320" y="310" width="170" height="30" as="geometry" />
        </mxCell>
        <mxCell id="_998W6DAtnBrzuv0yap4-21" value="" style="endArrow=classic;html=1;rounded=0;exitX=0.5;exitY=1;exitDx=0;exitDy=0;exitPerimeter=0;entryX=0;entryY=0.5;entryDx=0;entryDy=0;" edge="1" parent="1" target="_998W6DAtnBrzuv0yap4-20">
          <mxGeometry width="50" height="50" relative="1" as="geometry">
            <mxPoint x="260" y="160" as="sourcePoint" />
            <mxPoint x="320" y="295" as="targetPoint" />
            <Array as="points">
              <mxPoint x="260" y="325" />
            </Array>
          </mxGeometry>
        </mxCell>
        <mxCell id="_998W6DAtnBrzuv0yap4-22" value="to_dict (method)" style="text;strokeColor=none;fillColor=none;align=left;verticalAlign=middle;spacingLeft=4;spacingRight=4;overflow=hidden;points=[[0,0.5],[1,0.5]];portConstraint=eastwest;rotatable=0;whiteSpace=wrap;html=1;" vertex="1" parent="1">
          <mxGeometry x="320" y="340" width="100" height="30" as="geometry" />
        </mxCell>
        <mxCell id="_998W6DAtnBrzuv0yap4-23" value="" style="endArrow=classic;html=1;rounded=0;exitX=0.5;exitY=1;exitDx=0;exitDy=0;exitPerimeter=0;entryX=0;entryY=0.5;entryDx=0;entryDy=0;" edge="1" parent="1" target="_998W6DAtnBrzuv0yap4-22">
          <mxGeometry width="50" height="50" relative="1" as="geometry">
            <mxPoint x="260" y="160" as="sourcePoint" />
            <mxPoint x="320" y="325" as="targetPoint" />
            <Array as="points">
              <mxPoint x="260" y="355" />
            </Array>
          </mxGeometry>
        </mxCell>
        <mxCell id="_998W6DAtnBrzuv0yap4-24" value="Transaction (db.Model)" style="text;strokeColor=none;fillColor=none;align=left;verticalAlign=middle;spacingLeft=4;spacingRight=4;overflow=hidden;points=[[0,0.5],[1,0.5]];portConstraint=eastwest;rotatable=0;whiteSpace=wrap;html=1;" vertex="1" parent="1">
          <mxGeometry x="200" y="370" width="140" height="40" as="geometry" />
        </mxCell>
        <mxCell id="_998W6DAtnBrzuv0yap4-25" value="" style="endArrow=classic;html=1;rounded=0;entryX=0;entryY=0.5;entryDx=0;entryDy=0;" edge="1" parent="1" target="_998W6DAtnBrzuv0yap4-24">
          <mxGeometry width="50" height="50" relative="1" as="geometry">
            <mxPoint x="138" y="70" as="sourcePoint" />
            <mxPoint x="200" y="139" as="targetPoint" />
            <Array as="points">
              <mxPoint x="138" y="390" />
            </Array>
          </mxGeometry>
        </mxCell>
        <mxCell id="_998W6DAtnBrzuv0yap4-26" value="id (db.Column)" style="text;strokeColor=none;fillColor=none;align=left;verticalAlign=middle;spacingLeft=4;spacingRight=4;overflow=hidden;points=[[0,0.5],[1,0.5]];portConstraint=eastwest;rotatable=0;whiteSpace=wrap;html=1;" vertex="1" parent="1">
          <mxGeometry x="320" y="410" width="90" height="30" as="geometry" />
        </mxCell>
        <mxCell id="_998W6DAtnBrzuv0yap4-27" value="" style="endArrow=classic;html=1;rounded=0;exitX=0.498;exitY=1;exitDx=0;exitDy=0;exitPerimeter=0;entryX=0;entryY=0.5;entryDx=0;entryDy=0;" edge="1" parent="1" source="_998W6DAtnBrzuv0yap4-24" target="_998W6DAtnBrzuv0yap4-26">
          <mxGeometry width="50" height="50" relative="1" as="geometry">
            <mxPoint x="260" y="417.5" as="sourcePoint" />
            <mxPoint x="320" y="432.5" as="targetPoint" />
            <Array as="points">
              <mxPoint x="270" y="425" />
            </Array>
          </mxGeometry>
        </mxCell>
        <mxCell id="_998W6DAtnBrzuv0yap4-29" value="user_id (db.Column)" style="text;strokeColor=none;fillColor=none;align=left;verticalAlign=middle;spacingLeft=4;spacingRight=4;overflow=hidden;points=[[0,0.5],[1,0.5]];portConstraint=eastwest;rotatable=0;whiteSpace=wrap;html=1;" vertex="1" parent="1">
          <mxGeometry x="320" y="440" width="120" height="30" as="geometry" />
        </mxCell>
        <mxCell id="_998W6DAtnBrzuv0yap4-30" value="seller_id (db.Column)" style="text;strokeColor=none;fillColor=none;align=left;verticalAlign=middle;spacingLeft=4;spacingRight=4;overflow=hidden;points=[[0,0.5],[1,0.5]];portConstraint=eastwest;rotatable=0;whiteSpace=wrap;html=1;" vertex="1" parent="1">
          <mxGeometry x="320" y="470" width="130" height="30" as="geometry" />
        </mxCell>
        <mxCell id="_998W6DAtnBrzuv0yap4-31" value="item_name (db.Column)" style="text;strokeColor=none;fillColor=none;align=left;verticalAlign=middle;spacingLeft=4;spacingRight=4;overflow=hidden;points=[[0,0.5],[1,0.5]];portConstraint=eastwest;rotatable=0;whiteSpace=wrap;html=1;" vertex="1" parent="1">
          <mxGeometry x="320" y="500" width="140" height="30" as="geometry" />
        </mxCell>
        <mxCell id="_998W6DAtnBrzuv0yap4-32" value="item_price (db.Column)" style="text;strokeColor=none;fillColor=none;align=left;verticalAlign=middle;spacingLeft=4;spacingRight=4;overflow=hidden;points=[[0,0.5],[1,0.5]];portConstraint=eastwest;rotatable=0;whiteSpace=wrap;html=1;" vertex="1" parent="1">
          <mxGeometry x="320" y="530" width="140" height="30" as="geometry" />
        </mxCell>
        <mxCell id="_998W6DAtnBrzuv0yap4-33" value="transaction_type (db.Column)" style="text;strokeColor=none;fillColor=none;align=left;verticalAlign=middle;spacingLeft=4;spacingRight=4;overflow=hidden;points=[[0,0.5],[1,0.5]];portConstraint=eastwest;rotatable=0;whiteSpace=wrap;html=1;" vertex="1" parent="1">
          <mxGeometry x="320" y="560" width="170" height="30" as="geometry" />
        </mxCell>
        <mxCell id="_998W6DAtnBrzuv0yap4-34" value="transaction_date (db.Column)" style="text;strokeColor=none;fillColor=none;align=left;verticalAlign=middle;spacingLeft=4;spacingRight=4;overflow=hidden;points=[[0,0.5],[1,0.5]];portConstraint=eastwest;rotatable=0;whiteSpace=wrap;html=1;" vertex="1" parent="1">
          <mxGeometry x="320" y="590" width="170" height="30" as="geometry" />
        </mxCell>
        <mxCell id="_998W6DAtnBrzuv0yap4-35" value="to_dict (method)" style="text;strokeColor=none;fillColor=none;align=left;verticalAlign=middle;spacingLeft=4;spacingRight=4;overflow=hidden;points=[[0,0.5],[1,0.5]];portConstraint=eastwest;rotatable=0;whiteSpace=wrap;html=1;" vertex="1" parent="1">
          <mxGeometry x="320" y="620" width="100" height="30" as="geometry" />
        </mxCell>
        <mxCell id="_998W6DAtnBrzuv0yap4-37" value="" style="endArrow=classic;html=1;rounded=0;exitX=0.498;exitY=1;exitDx=0;exitDy=0;exitPerimeter=0;entryX=0;entryY=0.5;entryDx=0;entryDy=0;" edge="1" parent="1" target="_998W6DAtnBrzuv0yap4-29">
          <mxGeometry width="50" height="50" relative="1" as="geometry">
            <mxPoint x="270" y="410" as="sourcePoint" />
            <mxPoint x="320" y="425" as="targetPoint" />
            <Array as="points">
              <mxPoint x="270" y="455" />
            </Array>
          </mxGeometry>
        </mxCell>
        <mxCell id="_998W6DAtnBrzuv0yap4-38" value="" style="endArrow=classic;html=1;rounded=0;exitX=0.498;exitY=1;exitDx=0;exitDy=0;exitPerimeter=0;entryX=0;entryY=0.5;entryDx=0;entryDy=0;" edge="1" parent="1" target="_998W6DAtnBrzuv0yap4-30">
          <mxGeometry width="50" height="50" relative="1" as="geometry">
            <mxPoint x="270" y="410" as="sourcePoint" />
            <mxPoint x="320" y="455" as="targetPoint" />
            <Array as="points">
              <mxPoint x="270" y="485" />
            </Array>
          </mxGeometry>
        </mxCell>
        <mxCell id="_998W6DAtnBrzuv0yap4-39" value="" style="endArrow=classic;html=1;rounded=0;exitX=0.498;exitY=1;exitDx=0;exitDy=0;exitPerimeter=0;entryX=0;entryY=0.5;entryDx=0;entryDy=0;" edge="1" parent="1" target="_998W6DAtnBrzuv0yap4-31">
          <mxGeometry width="50" height="50" relative="1" as="geometry">
            <mxPoint x="270" y="410" as="sourcePoint" />
            <mxPoint x="320" y="485" as="targetPoint" />
            <Array as="points">
              <mxPoint x="270" y="515" />
            </Array>
          </mxGeometry>
        </mxCell>
        <mxCell id="_998W6DAtnBrzuv0yap4-40" value="" style="endArrow=classic;html=1;rounded=0;exitX=0.498;exitY=1;exitDx=0;exitDy=0;exitPerimeter=0;entryX=0;entryY=0.5;entryDx=0;entryDy=0;" edge="1" parent="1" target="_998W6DAtnBrzuv0yap4-32">
          <mxGeometry width="50" height="50" relative="1" as="geometry">
            <mxPoint x="270" y="410" as="sourcePoint" />
            <mxPoint x="320" y="515" as="targetPoint" />
            <Array as="points">
              <mxPoint x="270" y="545" />
            </Array>
          </mxGeometry>
        </mxCell>
        <mxCell id="_998W6DAtnBrzuv0yap4-41" value="" style="endArrow=classic;html=1;rounded=0;exitX=0.498;exitY=1;exitDx=0;exitDy=0;exitPerimeter=0;entryX=0;entryY=0.5;entryDx=0;entryDy=0;" edge="1" parent="1" target="_998W6DAtnBrzuv0yap4-33">
          <mxGeometry width="50" height="50" relative="1" as="geometry">
            <mxPoint x="270" y="410" as="sourcePoint" />
            <mxPoint x="320" y="545" as="targetPoint" />
            <Array as="points">
              <mxPoint x="270" y="575" />
            </Array>
          </mxGeometry>
        </mxCell>
        <mxCell id="_998W6DAtnBrzuv0yap4-42" value="" style="endArrow=classic;html=1;rounded=0;exitX=0.498;exitY=1;exitDx=0;exitDy=0;exitPerimeter=0;entryX=0;entryY=0.5;entryDx=0;entryDy=0;" edge="1" parent="1" target="_998W6DAtnBrzuv0yap4-34">
          <mxGeometry width="50" height="50" relative="1" as="geometry">
            <mxPoint x="270" y="410" as="sourcePoint" />
            <mxPoint x="320" y="575" as="targetPoint" />
            <Array as="points">
              <mxPoint x="270" y="605" />
            </Array>
          </mxGeometry>
        </mxCell>
        <mxCell id="_998W6DAtnBrzuv0yap4-43" value="" style="endArrow=classic;html=1;rounded=0;exitX=0.498;exitY=1;exitDx=0;exitDy=0;exitPerimeter=0;entryX=0;entryY=0.5;entryDx=0;entryDy=0;" edge="1" parent="1" target="_998W6DAtnBrzuv0yap4-35">
          <mxGeometry width="50" height="50" relative="1" as="geometry">
            <mxPoint x="270" y="410" as="sourcePoint" />
            <mxPoint x="320" y="605" as="targetPoint" />
            <Array as="points">
              <mxPoint x="270" y="635" />
            </Array>
          </mxGeometry>
        </mxCell>
        <mxCell id="_998W6DAtnBrzuv0yap4-44" value="UserController (class)" style="text;strokeColor=none;fillColor=none;align=left;verticalAlign=middle;spacingLeft=4;spacingRight=4;overflow=hidden;points=[[0,0.5],[1,0.5]];portConstraint=eastwest;rotatable=0;whiteSpace=wrap;html=1;" vertex="1" parent="1">
          <mxGeometry x="200" y="650" width="130" height="40" as="geometry" />
        </mxCell>
        <mxCell id="_998W6DAtnBrzuv0yap4-46" value="" style="endArrow=classic;html=1;rounded=0;entryX=0;entryY=0.5;entryDx=0;entryDy=0;" edge="1" parent="1" target="_998W6DAtnBrzuv0yap4-44">
          <mxGeometry width="50" height="50" relative="1" as="geometry">
            <mxPoint x="138" y="70" as="sourcePoint" />
            <mxPoint x="200" y="390" as="targetPoint" />
            <Array as="points">
              <mxPoint x="138" y="390" />
              <mxPoint x="138" y="670" />
            </Array>
          </mxGeometry>
        </mxCell>
        <mxCell id="_998W6DAtnBrzuv0yap4-47" value="create_user (staticmethod)" style="text;strokeColor=none;fillColor=none;align=left;verticalAlign=middle;spacingLeft=4;spacingRight=4;overflow=hidden;points=[[0,0.5],[1,0.5]];portConstraint=eastwest;rotatable=0;whiteSpace=wrap;html=1;" vertex="1" parent="1">
          <mxGeometry x="320" y="690" width="160" height="30" as="geometry" />
        </mxCell>
        <mxCell id="_998W6DAtnBrzuv0yap4-48" value="update_user (staticmethod)" style="text;strokeColor=none;fillColor=none;align=left;verticalAlign=middle;spacingLeft=4;spacingRight=4;overflow=hidden;points=[[0,0.5],[1,0.5]];portConstraint=eastwest;rotatable=0;whiteSpace=wrap;html=1;" vertex="1" parent="1">
          <mxGeometry x="320" y="720" width="160" height="30" as="geometry" />
        </mxCell>
        <mxCell id="_998W6DAtnBrzuv0yap4-49" value="delete_user (staticmethod)" style="text;strokeColor=none;fillColor=none;align=left;verticalAlign=middle;spacingLeft=4;spacingRight=4;overflow=hidden;points=[[0,0.5],[1,0.5]];portConstraint=eastwest;rotatable=0;whiteSpace=wrap;html=1;" vertex="1" parent="1">
          <mxGeometry x="320" y="750" width="160" height="30" as="geometry" />
        </mxCell>
        <mxCell id="_998W6DAtnBrzuv0yap4-50" value="get_users (staticmethod)" style="text;strokeColor=none;fillColor=none;align=left;verticalAlign=middle;spacingLeft=4;spacingRight=4;overflow=hidden;points=[[0,0.5],[1,0.5]];portConstraint=eastwest;rotatable=0;whiteSpace=wrap;html=1;" vertex="1" parent="1">
          <mxGeometry x="320" y="780" width="160" height="30" as="geometry" />
        </mxCell>
        <mxCell id="_998W6DAtnBrzuv0yap4-51" value="" style="endArrow=classic;html=1;rounded=0;entryX=0;entryY=0.5;entryDx=0;entryDy=0;exitX=0.495;exitY=1;exitDx=0;exitDy=0;exitPerimeter=0;" edge="1" parent="1" source="_998W6DAtnBrzuv0yap4-44" target="_998W6DAtnBrzuv0yap4-47">
          <mxGeometry width="50" height="50" relative="1" as="geometry">
            <mxPoint x="250" y="700" as="sourcePoint" />
            <mxPoint x="310" y="705" as="targetPoint" />
            <Array as="points">
              <mxPoint x="264" y="705" />
            </Array>
          </mxGeometry>
        </mxCell>
        <mxCell id="_998W6DAtnBrzuv0yap4-52" value="" style="endArrow=classic;html=1;rounded=0;entryX=0;entryY=0.5;entryDx=0;entryDy=0;exitX=0.495;exitY=1;exitDx=0;exitDy=0;exitPerimeter=0;" edge="1" parent="1" target="_998W6DAtnBrzuv0yap4-48">
          <mxGeometry width="50" height="50" relative="1" as="geometry">
            <mxPoint x="264" y="690" as="sourcePoint" />
            <mxPoint x="320" y="705" as="targetPoint" />
            <Array as="points">
              <mxPoint x="264" y="735" />
            </Array>
          </mxGeometry>
        </mxCell>
        <mxCell id="_998W6DAtnBrzuv0yap4-53" value="" style="endArrow=classic;html=1;rounded=0;entryX=0;entryY=0.5;entryDx=0;entryDy=0;exitX=0.495;exitY=1;exitDx=0;exitDy=0;exitPerimeter=0;" edge="1" parent="1" target="_998W6DAtnBrzuv0yap4-49">
          <mxGeometry width="50" height="50" relative="1" as="geometry">
            <mxPoint x="264" y="690" as="sourcePoint" />
            <mxPoint x="320" y="735" as="targetPoint" />
            <Array as="points">
              <mxPoint x="264" y="765" />
            </Array>
          </mxGeometry>
        </mxCell>
        <mxCell id="_998W6DAtnBrzuv0yap4-54" value="" style="endArrow=classic;html=1;rounded=0;entryX=0;entryY=0.5;entryDx=0;entryDy=0;exitX=0.495;exitY=1;exitDx=0;exitDy=0;exitPerimeter=0;" edge="1" parent="1" target="_998W6DAtnBrzuv0yap4-50">
          <mxGeometry width="50" height="50" relative="1" as="geometry">
            <mxPoint x="264" y="690" as="sourcePoint" />
            <mxPoint x="320" y="765" as="targetPoint" />
            <Array as="points">
              <mxPoint x="264" y="795" />
            </Array>
          </mxGeometry>
        </mxCell>
        <mxCell id="_998W6DAtnBrzuv0yap4-55" value="TransactionController (class)" style="text;strokeColor=none;fillColor=none;align=left;verticalAlign=middle;spacingLeft=4;spacingRight=4;overflow=hidden;points=[[0,0.5],[1,0.5]];portConstraint=eastwest;rotatable=0;whiteSpace=wrap;html=1;" vertex="1" parent="1">
          <mxGeometry x="200" y="810" width="170" height="40" as="geometry" />
        </mxCell>
        <mxCell id="_998W6DAtnBrzuv0yap4-56" value="" style="endArrow=classic;html=1;rounded=0;entryX=0;entryY=0.5;entryDx=0;entryDy=0;" edge="1" parent="1" target="_998W6DAtnBrzuv0yap4-55">
          <mxGeometry width="50" height="50" relative="1" as="geometry">
            <mxPoint x="138" y="70" as="sourcePoint" />
            <mxPoint x="200" y="670" as="targetPoint" />
            <Array as="points">
              <mxPoint x="138" y="390" />
              <mxPoint x="138" y="830" />
            </Array>
          </mxGeometry>
        </mxCell>
        <mxCell id="_998W6DAtnBrzuv0yap4-57" value="create_transaction (staticmethod)" style="text;strokeColor=none;fillColor=none;align=left;verticalAlign=middle;spacingLeft=4;spacingRight=4;overflow=hidden;points=[[0,0.5],[1,0.5]];portConstraint=eastwest;rotatable=0;whiteSpace=wrap;html=1;" vertex="1" parent="1">
          <mxGeometry x="320" y="850" width="190" height="30" as="geometry" />
        </mxCell>
        <mxCell id="_998W6DAtnBrzuv0yap4-58" value="delete_transaction (staticmethod)" style="text;strokeColor=none;fillColor=none;align=left;verticalAlign=middle;spacingLeft=4;spacingRight=4;overflow=hidden;points=[[0,0.5],[1,0.5]];portConstraint=eastwest;rotatable=0;whiteSpace=wrap;html=1;" vertex="1" parent="1">
          <mxGeometry x="320" y="880" width="190" height="30" as="geometry" />
        </mxCell>
        <mxCell id="_998W6DAtnBrzuv0yap4-59" value="get_transactions (staticmethod)" style="text;strokeColor=none;fillColor=none;align=left;verticalAlign=middle;spacingLeft=4;spacingRight=4;overflow=hidden;points=[[0,0.5],[1,0.5]];portConstraint=eastwest;rotatable=0;whiteSpace=wrap;html=1;" vertex="1" parent="1">
          <mxGeometry x="320" y="910" width="190" height="30" as="geometry" />
        </mxCell>
        <mxCell id="_998W6DAtnBrzuv0yap4-60" value="" style="endArrow=classic;html=1;rounded=0;entryX=0;entryY=0.5;entryDx=0;entryDy=0;exitX=0.496;exitY=1;exitDx=0;exitDy=0;exitPerimeter=0;" edge="1" parent="1" source="_998W6DAtnBrzuv0yap4-55" target="_998W6DAtnBrzuv0yap4-57">
          <mxGeometry width="50" height="50" relative="1" as="geometry">
            <mxPoint x="242" y="880" as="sourcePoint" />
            <mxPoint x="298" y="895" as="targetPoint" />
            <Array as="points">
              <mxPoint x="284" y="865" />
            </Array>
          </mxGeometry>
        </mxCell>
        <mxCell id="_998W6DAtnBrzuv0yap4-61" value="" style="endArrow=classic;html=1;rounded=0;entryX=0;entryY=0.5;entryDx=0;entryDy=0;exitX=0.496;exitY=1;exitDx=0;exitDy=0;exitPerimeter=0;" edge="1" parent="1" target="_998W6DAtnBrzuv0yap4-58">
          <mxGeometry width="50" height="50" relative="1" as="geometry">
            <mxPoint x="284" y="850" as="sourcePoint" />
            <mxPoint x="320" y="865" as="targetPoint" />
            <Array as="points">
              <mxPoint x="284" y="895" />
            </Array>
          </mxGeometry>
        </mxCell>
        <mxCell id="_998W6DAtnBrzuv0yap4-62" value="" style="endArrow=classic;html=1;rounded=0;entryX=0;entryY=0.5;entryDx=0;entryDy=0;exitX=0.496;exitY=1;exitDx=0;exitDy=0;exitPerimeter=0;" edge="1" parent="1" target="_998W6DAtnBrzuv0yap4-59">
          <mxGeometry width="50" height="50" relative="1" as="geometry">
            <mxPoint x="284" y="850" as="sourcePoint" />
            <mxPoint x="320" y="895" as="targetPoint" />
            <Array as="points">
              <mxPoint x="284" y="925" />
            </Array>
          </mxGeometry>
        </mxCell>
      </root>
    </mxGraphModel>
  </diagram>
</mxfile>
